<?xml version="1.0" encoding="utf-8"?>
<!-- Generator: Adobe Illustrator 21.1.0, SVG Export Plug-In . SVG Version: 6.00 Build 0)  -->
<svg version="1.1" id="Layer_1" xmlns="http://www.w3.org/2000/svg" xmlns:xlink="http://www.w3.org/1999/xlink" x="0px" y="0px"
	 viewBox="0 0 1515.216 1517.351" enable-background="new 0 0 1515.216 1517.351" xml:space="preserve">
<path fill="#D90011" d="M744.004,1490.622c-46.799-9.064-84.775-36.105-123.738-61.011c-22.962-14.678-47.649-21.403-74.939-20.08
	c-25.122,1.217-50.297,1.547-75.454,1.794c-59.296,0.583-103.265-25.649-132.372-76.953c-11.236-19.805-22.198-39.796-32.423-60.136
	c-13.366-26.59-32.758-46.573-59.477-59.942c-22.122-11.069-43.989-22.725-65.434-35.05c-50.59-29.075-74.599-73.713-74.611-131.523
	c-0.005-22.396,0.336-44.849,1.937-67.174c2.455-34.222-8.004-63.958-27.041-91.886c-13.248-19.435-25.472-39.693-36.635-60.401
	c-25.061-46.492-24.198-93.558,0.759-139.792c10.994-20.366,23.002-40.307,36.065-59.404c20.704-30.268,28.441-63.031,25.439-99.406
	c-1.935-23.451-1.993-47.157-1.317-70.703c1.397-48.64,22.781-86.957,63.595-113.394c19.729-12.78,40.268-24.722,61.596-34.531
	c36.858-16.951,62.103-43.773,79.278-80.24c11.166-23.708,24.354-46.777,39.209-68.361c24.191-35.151,59.244-53.72,101.687-55.855
	c28.598-1.439,57.371-0.443,86.026,0.578c27.875,0.992,53.781-3.904,77.604-19.135c22.833-14.599,45.723-29.194,69.32-42.491
	c47.526-26.78,96.033-27.29,144.003-1.338c22.773,12.32,44.713,26.257,66.542,40.226c23.586,15.095,48.817,22.903,76.95,21.571
	c24.339-1.152,48.704-2.001,73.067-2.342c59.985-0.841,105.201,24.666,134.763,77.05c11.389,20.182,22.604,40.493,33.01,61.193
	c13.009,25.877,32.011,45.298,57.827,58.372c19.624,9.939,39.073,20.232,58.457,30.634c57.673,30.95,84.943,79.371,82.9,144.633
	c-0.787,25.142-1.244,50.294-1.839,75.442c-0.53,22.365,6.351,42.529,18.163,61.246c12.582,19.937,25.304,39.788,37.624,59.886
	c34.344,56.027,33.794,112.139-0.209,168.104c-8.976,14.773-17.397,29.992-27.578,43.905
	c-23.623,32.281-30.237,68.131-26.708,107.204c1.869,20.691,1.756,41.637,1.332,62.443c-1.06,52.062-24.367,91.981-68.535,119.119
	c-21.055,12.938-42.894,24.745-65.043,35.723c-30.136,14.936-51.781,37.324-66.539,67.422
	c-10.88,22.188-22.592,44.063-35.391,65.194c-27.262,45.009-68.514,67.007-120.489,68.511c-24.316,0.704-48.746-0.316-73.045-1.824
	c-33.614-2.087-63.312,7.264-91.098,25.901c-28.98,19.439-57.611,39.864-91.752,49.943c-8.231,2.43-16.541,4.594-24.814,6.88
	C764.451,1490.622,754.227,1490.622,744.004,1490.622z"/>
<g>
	<path fill="#FFFFFF" d="M385.5,985.134c-16.321,5.439-42.561,12.16-69.762,12.16c-29.441,0-54.082-7.681-71.682-23.681
		c-17.28-15.04-27.201-39.041-27.201-66.562c0-40.321,16.32-75.202,43.841-98.562c24.321-20.16,57.921-31.36,95.362-31.36
		c27.841,0,48.641,5.439,56.961,9.6l-13.76,38.722c-9.601-4.48-26.561-8.641-45.761-8.641c-21.44,0-40.321,6.08-54.721,17.28
		c-18.88,14.721-31.361,40.321-31.361,69.762c0,36.161,21.44,54.401,55.361,54.401c10.88,0,18.241-1.601,23.681-3.84l8.64-45.441
		h-33.601l7.36-36.801h78.402L385.5,985.134z"/>
	<path fill="#FFFFFF" d="M405.012,995.054l17.601-93.122c4.48-23.681,6.4-49.921,8-63.361h40.001
		c-0.96,10.561-1.6,21.12-2.88,32.001h0.96c11.2-20.801,28.48-35.521,49.921-35.521c2.88,0,5.76,0,8.64,0.32l-8.96,44.801
		c-2.24-0.319-4.8-0.319-7.36-0.319c-29.441,0-43.201,26.24-48.961,56.961l-10.88,58.241H405.012z"/>
	<path fill="#FFFFFF" d="M607.257,995.054c0.32-9.28,1.28-19.841,1.92-31.041h-0.64c-14.4,25.921-34.561,34.562-52.801,34.562
		c-28.161,0-47.361-21.761-47.361-54.401c0-52.802,35.201-109.123,112.003-109.123c18.88,0,38.721,3.521,51.841,7.681l-16.32,81.922
		c-3.84,20.16-7.04,50.881-6.4,70.401H607.257z M620.377,871.211c-3.521-0.64-7.68-1.28-12.48-1.28
		c-29.761,0-51.521,36.481-51.521,65.602c0,15.36,6.08,25.921,18.88,25.921c13.76,0,30.721-15.681,38.081-54.081L620.377,871.211z"
		/>
	<path fill="#FFFFFF" d="M654.606,1058.415l30.401-159.363c3.52-18.561,7.04-45.762,8.96-61.762h41.281l-2.88,24.001h0.64
		c12.8-16.961,31.36-26.241,50.241-26.241c33.92,0,50.561,27.201,50.561,59.521c0,54.081-36.161,104.003-90.882,104.003
		c-12.48,0-23.36-3.2-28.8-6.4h-0.96l-12.48,66.241H654.606z M720.528,956.333c5.12,4.479,11.84,7.36,21.121,7.36
		c24.641,0,43.841-34.881,43.841-65.602c0-12.48-5.44-25.601-20.16-25.601c-17.281,0-33.281,19.2-39.041,49.921L720.528,956.333z"/>
	<path fill="#FFFFFF" d="M831.246,995.054l43.201-227.205h46.081l-17.601,90.882h0.64c13.12-14.4,29.44-23.681,49.921-23.681
		c24.321,0,39.361,15.36,39.361,42.241c0,7.36-1.28,19.2-2.88,28.16l-16.96,89.603h-46.081l16.32-85.762
		c1.28-6.08,1.92-12.801,1.92-19.2c0-10.561-4.16-17.921-15.68-17.921c-16.32,0-32.641,19.841-38.401,51.201l-13.76,71.682H831.246z
		"/>
	<path fill="#FFFFFF" d="M1177.486,1033.775c-29.44-8.64-61.441-21.12-80.642-30.4c-10.24-4.48-13.12-5.44-15.36-5.44
		c-41.921-2.88-74.882-35.521-74.882-89.922c0-36.48,13.12-74.242,37.441-99.202c21.44-21.44,50.561-32.961,81.282-32.961
		c58.241,0,86.722,41.921,86.722,89.922c0,36.481-13.12,75.522-36.16,98.883c-8.641,8.32-19.521,16-31.681,20.8v0.96
		c13.12,3.521,31.04,7.681,49.281,10.881L1177.486,1033.775z M1082.764,830.25c-17.601,17.601-27.201,52.801-27.201,77.762
		c0,30.4,14.08,52.481,44.801,52.481c14.081,0,26.241-6.08,36.161-15.681c16.641-16.96,26.561-52.801,26.561-78.722
		c0-24.32-9.28-51.841-43.201-51.841C1105.165,814.25,1092.684,820.33,1082.764,830.25z"/>
	<path fill="#FFFFFF" d="M1247.878,779.369h46.081l-33.28,175.363h82.882l-7.681,40.321h-128.963L1247.878,779.369z"/>
</g>
<g>
	<g>
		<g>
			
				<rect x="209.95" y="438.378" transform="matrix(0.5 -0.866 0.866 0.5 -193.1503 560.7722)" fill="#FFFFFF" width="358.249" height="18.567"/>
		</g>
	</g>
	<g>
		<g>
			<rect x="287.789" y="573.359" fill="#FFFFFF" width="358.257" height="18.567"/>
		</g>
	</g>
	<g>
		<g>
			
				<rect x="379.834" y="524.022" transform="matrix(0.5 -0.866 0.866 0.5 -348.8563 650.717)" fill="#FFFFFF" width="18.567" height="206.919"/>
		</g>
	</g>
	<g>
		<g>
			
				<rect x="535.502" y="254.374" transform="matrix(0.5 -0.866 0.866 0.5 -37.5038 650.7068)" fill="#FFFFFF" width="18.567" height="206.919"/>
		</g>
	</g>
	<g>
		<g>
			
				<rect x="285.708" y="348.479" transform="matrix(0.866 -0.5 0.5 0.866 -126.7442 242.5213)" fill="#FFFFFF" width="206.919" height="18.567"/>
		</g>
	</g>
	<g>
		<g>
			
				<rect x="535.629" y="268.54" transform="matrix(0.866 -0.5 0.5 0.866 -150.8296 332.4407)" fill="#FFFFFF" width="18.567" height="358.249"/>
		</g>
	</g>
	<g>
		<g>
			<rect x="301.994" y="389.141" fill="#FFFFFF" width="18.567" height="206.924"/>
		</g>
	</g>
	<g>
		<g>
			<rect x="613.386" y="389.141" fill="#FFFFFF" width="18.567" height="206.924"/>
		</g>
	</g>
	<g>
		<g>
			
				<rect x="454.802" y="619.269" transform="matrix(0.866 -0.5 0.5 0.866 -240.7052 356.4548)" fill="#FFFFFF" width="179.964" height="16.218"/>
		</g>
	</g>
	<path fill="#FFFFFF" d="M656.56,602.105c-10.738,18.679-34.674,25.055-53.353,14.317c-18.679-10.738-25.055-34.674-14.317-53.353
		c10.738-18.679,34.674-25.055,53.353-14.317C661.034,559.602,667.41,583.426,656.56,602.105"/>
	<path fill="#FFFFFF" d="M344.945,422.137c-10.738,18.679-34.674,25.055-53.353,14.317c-18.679-10.738-25.055-34.674-14.317-53.353
		s34.674-25.055,53.353-14.317C349.307,379.634,355.682,403.458,344.945,422.137"/>
	<path fill="#FFFFFF" d="M277.387,602.105c-10.738-18.679-4.362-42.503,14.317-53.353c18.679-10.738,42.503-4.362,53.353,14.317
		c10.738,18.679,4.362,42.503-14.317,53.353C311.949,627.159,288.124,620.784,277.387,602.105"/>
	<path fill="#FFFFFF" d="M589.002,422.137c-10.738-18.679-4.362-42.503,14.317-53.353c18.679-10.738,42.503-4.362,53.353,14.317
		c10.738,18.679,4.362,42.503-14.317,53.353C623.676,447.192,599.74,440.816,589.002,422.137"/>
	<path fill="#FFFFFF" d="M466.974,711.607c-21.587,0-39.036-17.449-39.036-39.036c0-21.587,17.449-39.036,39.036-39.036
		s39.036,17.449,39.036,39.036C506.009,694.046,488.561,711.607,466.974,711.607"/>
	<path fill="#FFFFFF" d="M466.974,351.671c-21.587,0-39.036-17.449-39.036-39.036s17.449-39.036,39.036-39.036
		s39.036,17.449,39.036,39.036S488.561,351.671,466.974,351.671"/>
</g>
<path fill="#FFFFFF" d="M717.321,992.076l-50.03,263.438h-50.401l50.532-266.083L717.321,992.076z"/>
<path fill="#FFFFFF" d="M931.19,1114.111c0,43.051-15.05,85.052-42.001,111.302c-22.05,21.351-51.801,33.95-87.151,33.95
	c-61.251,0-95.552-43.4-95.552-98.352c0-42.7,15.75-85.051,43.401-111.651c22.05-21,52.151-33.601,86.102-33.601
	C898.29,1015.759,931.19,1057.76,931.19,1114.111z M789.438,1075.61c-18.9,18.551-29.401,55.301-29.401,83.651
	c0,33.251,15.05,58.102,49.351,58.102c15.05,0,28.7-6.301,39.551-17.15c18.55-18.551,28.7-57.401,28.7-84.702
	c0-29.4-10.5-57.751-47.601-57.751C814.288,1057.76,800.288,1064.41,789.438,1075.61z"/>
<g>
	<g>
		<g>
			
				<rect x="793.229" y="438.375" transform="matrix(0.5 -0.866 0.866 0.5 98.4856 1065.9012)" fill="#FFFFFF" width="358.249" height="18.567"/>
		</g>
	</g>
	<g>
		<g>
			<rect x="871.068" y="573.356" fill="#FFFFFF" width="358.257" height="18.567"/>
		</g>
	</g>
	<g>
		<g>
			
				<rect x="963.113" y="524.018" transform="matrix(0.5 -0.866 0.866 0.5 -57.2203 1155.8461)" fill="#FFFFFF" width="18.567" height="206.919"/>
		</g>
	</g>
	<g>
		<g>
			
				<rect x="1118.781" y="254.37" transform="matrix(0.5 -0.866 0.866 0.5 254.1321 1155.8358)" fill="#FFFFFF" width="18.567" height="206.919"/>
		</g>
	</g>
	<g>
		<g>
			
				<rect x="868.987" y="348.476" transform="matrix(0.866 -0.5 0.5 0.866 -48.5942 534.1667)" fill="#FFFFFF" width="206.919" height="18.567"/>
		</g>
	</g>
	<g>
		<g>
			
				<rect x="1118.908" y="268.537" transform="matrix(0.866 -0.5 0.5 0.866 -72.6796 624.0862)" fill="#FFFFFF" width="18.567" height="358.249"/>
		</g>
	</g>
	<g>
		<g>
			<rect x="885.273" y="389.138" fill="#FFFFFF" width="18.567" height="206.924"/>
		</g>
	</g>
	<g>
		<g>
			<rect x="1196.665" y="389.138" fill="#FFFFFF" width="18.567" height="206.924"/>
		</g>
	</g>
	<g>
		<g>
			
				<rect x="1038.081" y="619.266" transform="matrix(0.866 -0.5 0.5 0.866 -162.5553 648.1002)" fill="#FFFFFF" width="179.964" height="16.218"/>
		</g>
	</g>
	<path fill="#FFFFFF" d="M1239.839,602.101c-10.738,18.679-34.674,25.055-53.353,14.317c-18.679-10.738-25.055-34.674-14.317-53.353
		c10.738-18.679,34.674-25.055,53.353-14.317C1244.313,559.598,1250.689,583.422,1239.839,602.101"/>
	<path fill="#FFFFFF" d="M928.224,422.134c-10.738,18.679-34.674,25.055-53.353,14.317c-18.679-10.738-25.055-34.674-14.317-53.353
		c10.738-18.679,34.674-25.055,53.353-14.317C932.586,379.631,938.961,403.455,928.224,422.134"/>
	<path fill="#FFFFFF" d="M860.666,602.101c-10.738-18.679-4.362-42.503,14.317-53.353c18.679-10.738,42.503-4.362,53.353,14.317
		c10.738,18.679,4.362,42.503-14.317,53.353C895.228,627.156,871.403,620.781,860.666,602.101"/>
	<path fill="#FFFFFF" d="M1172.281,422.134c-10.738-18.679-4.362-42.503,14.317-53.353c18.679-10.738,42.503-4.362,53.353,14.317
		c10.738,18.679,4.362,42.503-14.317,53.353C1206.955,447.188,1183.019,440.813,1172.281,422.134"/>
	<path fill="#FFFFFF" d="M1050.252,711.603c-21.587,0-39.036-17.449-39.036-39.036c0-21.587,17.449-39.036,39.036-39.036
		c21.587,0,39.036,17.449,39.036,39.036C1089.288,694.043,1071.84,711.603,1050.252,711.603"/>
	<path fill="#FFFFFF" d="M1050.252,351.668c-21.587,0-39.036-17.449-39.036-39.036s17.449-39.036,39.036-39.036
		c21.587,0,39.036,17.449,39.036,39.036S1071.84,351.668,1050.252,351.668"/>
</g>
<polygon fill="#FFFFFF" points="895.774,585.027 622.918,585.027 622.918,493.822 623.063,402.616 895.774,402.616 895.629,493.822 
	"/>
<g>
	<path fill="#DD1C21" d="M741.633,540.99c-3.75,1.95-13.35,4.2-25.349,4.2c-37.798,0-54.448-23.55-54.448-50.549
		c0-35.698,26.099-53.848,56.248-53.848c11.549,0,20.999,2.25,25.199,4.5l-5.25,21.299c-4.35-1.8-10.65-3.6-18.75-3.6
		c-15.449,0-28.949,9.149-28.949,29.849c0,18.449,10.95,29.849,29.549,29.849c6.45,0,13.799-1.199,17.999-2.85L741.633,540.99z"/>
	<path fill="#DD1C21" d="M743.135,549.389l27.898-108.745h17.25l-27.899,108.745H743.135z"/>
	<path fill="#DD1C21" d="M792.033,516.541c6.15,3.15,16.049,6.3,26.249,6.3c9.299,0,13.799-3.149,13.799-8.25
		c0-4.949-4.5-7.799-15.899-11.699c-17.099-6-28.499-15.449-28.499-30.448c0-17.85,15.149-31.649,40.648-31.649
		c12,0,20.699,2.25,27.299,5.25l-5.7,21.6c-4.35-1.95-11.85-4.8-21.899-4.8c-8.25,0-12.75,2.999-12.75,7.499
		c0,5.1,5.4,7.2,18.149,11.85c18.149,6.75,26.249,16.499,26.249,30.599c0,17.399-13.499,32.249-43.048,32.249
		c-12.15,0-23.999-3.15-29.699-6.149L792.033,516.541z"/>
</g>
<g>
</g>
<g>
</g>
<g>
</g>
<g>
</g>
<g>
</g>
<g>
</g>
</svg>
